<?xml version="1.0" standalone="no"?>
<!DOCTYPE svg PUBLIC "-//W3C//DTD SVG 20010904//EN"
 "http://www.w3.org/TR/2001/REC-SVG-20010904/DTD/svg10.dtd">
<svg version="1.0" xmlns="http://www.w3.org/2000/svg"
 width="672.000000pt" height="672.000000pt" viewBox="0 0 672.000000 672.000000"
 preserveAspectRatio="xMidYMid meet">
<metadata>
Created by potrace 1.14, written by Peter Selinger 2001-2017
</metadata>
<g transform="translate(0.000000,672.000000) scale(0.100000,-0.100000)"
fill="#000000" stroke="none">
<path d="M3068 5995 c-2 -2 -48 -6 -103 -9 -55 -4 -113 -8 -130 -10 -16 -2
-64 -7 -105 -11 -136 -11 -252 -24 -375 -40 -22 -3 -59 -8 -81 -10 -23 -2 -55
-7 -70 -9 -16 -3 -54 -8 -84 -12 -30 -3 -64 -8 -75 -10 -48 -10 -73 -14 -115
-18 -45 -5 -87 -12 -127 -21 -12 -3 -41 -7 -65 -10 -80 -10 -418 -75 -518
-100 -30 -8 -66 -16 -80 -19 -62 -13 -189 -54 -231 -75 -61 -31 -73 -52 -75
-137 -2 -89 15 -165 73 -324 55 -153 251 -558 276 -568 4 -2 5 -7 2 -12 -3 -4
2 -13 10 -20 8 -7 15 -19 15 -26 0 -8 5 -14 10 -14 6 0 10 -5 10 -10 0 -13 81
-144 92 -148 4 -2 8 -8 8 -13 0 -10 115 -185 134 -205 6 -6 24 -32 40 -57 17
-26 34 -47 38 -47 4 0 8 -4 8 -10 0 -5 6 -18 14 -27 96 -117 154 -189 165
-207 18 -26 415 -420 465 -461 20 -16 53 -46 74 -65 20 -19 56 -50 79 -68 23
-18 54 -45 70 -58 62 -55 244 -194 253 -194 6 0 10 -4 10 -9 0 -4 17 -20 38
-34 20 -14 77 -53 125 -86 48 -34 92 -61 97 -61 4 0 10 -4 12 -8 9 -24 370
-222 431 -237 15 -4 27 -11 27 -16 0 -5 10 -9 23 -9 13 0 27 -4 33 -8 8 -8 75
-28 164 -50 62 -16 228 -4 345 23 61 14 119 27 130 29 114 21 824 254 1045
343 8 3 20 7 25 9 6 1 100 37 210 79 110 42 227 86 260 98 33 12 62 25 63 30
2 4 10 7 17 7 11 0 421 159 490 190 72 32 115 50 120 50 5 0 67 26 120 50 40
19 80 33 88 32 4 -1 7 1 7 6 0 4 -26 18 -58 31 -31 14 -85 37 -120 53 -34 15
-64 28 -66 28 -14 0 -504 240 -641 314 -116 62 -218 120 -270 153 -11 7 -33
20 -50 29 -75 41 -315 202 -430 288 -235 176 -421 358 -545 536 -14 19 -28 37
-31 40 -3 3 -46 66 -94 140 -81 124 -110 170 -142 225 -49 84 -121 209 -146
254 -44 81 -165 285 -175 297 -5 6 -22 30 -36 53 -15 23 -47 62 -72 85 -64 62
-110 70 -381 72 -122 1 -224 0 -225 -1z"/>
<path d="M1107 3453 c-2 -1 -22 -5 -46 -8 -24 -3 -55 -7 -70 -9 -14 -3 -44 -7
-66 -11 -23 -3 -50 -7 -62 -9 -12 -3 -43 -8 -70 -12 -26 -3 -55 -8 -63 -10
-56 -13 -159 -36 -180 -40 -14 -3 -43 -10 -65 -16 -22 -5 -47 -11 -55 -13 -8
-2 -51 -15 -95 -29 -44 -14 -83 -26 -86 -26 -4 0 -29 -10 -56 -22 -26 -12 -51
-22 -55 -22 -3 -1 -34 -19 -67 -41 -84 -54 -89 -89 -22 -153 86 -82 381 -238
756 -402 116 -50 224 -97 240 -104 57 -26 100 -44 275 -116 96 -40 188 -78
204 -86 16 -8 35 -14 43 -14 7 0 13 -4 13 -8 0 -5 6 -9 13 -9 9 -1 322 -128
422 -172 55 -24 385 -148 625 -234 240 -86 647 -219 850 -278 41 -11 82 -24
90 -27 8 -3 20 -6 25 -7 6 -2 57 -15 115 -29 58 -15 123 -29 145 -33 22 -3 41
-7 43 -8 2 -2 18 1 35 6 18 4 47 11 64 14 42 7 228 63 418 126 83 27 154 49
159 48 5 0 12 3 15 8 3 4 42 20 86 35 88 29 204 70 335 118 47 18 121 45 165
61 44 15 123 45 175 64 52 20 100 38 105 39 6 2 17 6 25 9 8 4 112 43 230 87
118 44 222 83 230 87 8 3 20 7 25 8 6 2 33 12 60 23 47 20 262 103 505 195 99
37 138 57 113 57 -6 0 -28 8 -49 17 -22 9 -41 17 -44 18 -7 2 -32 12 -115 46
-38 16 -73 29 -77 29 -4 0 -33 12 -65 26 -65 29 -80 36 -139 57 l-41 16 -149
-58 c-82 -31 -158 -61 -169 -66 -11 -4 -25 -9 -30 -10 -6 -2 -40 -14 -75 -28
-207 -80 -682 -257 -692 -257 -4 0 -19 -5 -35 -12 -15 -6 -30 -12 -33 -13 -3
-1 -12 -4 -20 -7 -27 -11 -175 -63 -180 -64 -3 0 -12 -4 -20 -7 -8 -4 -109
-38 -225 -77 -115 -38 -210 -70 -210 -71 0 0 -9 -2 -19 -4 -10 -2 -40 -10 -65
-19 -176 -57 -306 -73 -446 -54 -38 5 -80 10 -92 11 -13 1 -23 6 -23 10 0 5
-4 6 -9 3 -5 -3 -58 8 -117 24 -101 28 -153 46 -259 88 -54 21 -349 165 -405
198 -97 57 -195 119 -198 126 -2 5 -10 8 -17 8 -8 0 -20 6 -27 13 -7 7 -35 28
-63 47 -51 34 -266 190 -275 200 -3 3 -32 25 -65 49 -33 25 -62 47 -65 50 -3
3 -32 26 -65 51 -33 25 -123 95 -200 155 -77 61 -176 139 -220 173 -44 35 -87
68 -95 75 -9 7 -42 32 -75 57 -33 25 -71 55 -85 68 -14 12 -28 22 -32 22 -3 0
-13 6 -20 13 -57 52 -82 62 -161 62 -43 1 -79 0 -80 -2z"/>
<path d="M1130 1768 c-30 -4 -73 -10 -95 -13 -22 -3 -51 -7 -65 -10 -14 -3
-45 -8 -70 -11 -25 -3 -92 -15 -150 -25 -58 -11 -118 -22 -135 -24 -101 -14
-422 -89 -471 -110 -19 -8 -34 -12 -34 -9 0 8 -84 -38 -92 -50 -13 -20 8 -28
182 -71 30 -7 69 -17 85 -21 17 -4 37 -9 45 -10 8 -1 35 -7 60 -14 25 -7 54
-13 65 -15 11 -1 40 -7 65 -13 25 -6 58 -13 74 -16 16 -3 52 -10 80 -16 28 -6
60 -12 71 -14 11 -2 31 -7 45 -10 14 -3 36 -8 50 -10 14 -3 50 -10 80 -16 30
-6 66 -13 80 -16 14 -2 48 -9 76 -15 28 -5 61 -12 75 -14 24 -5 35 -7 124 -25
88 -17 109 -21 140 -25 17 -2 41 -7 55 -10 28 -6 109 -23 155 -31 93 -17 183
-34 200 -37 66 -14 102 -20 120 -22 11 -1 47 -8 80 -15 33 -6 69 -13 80 -14
11 -2 31 -6 45 -9 14 -4 41 -9 60 -11 19 -3 71 -12 115 -20 44 -9 94 -18 110
-21 17 -3 41 -7 55 -9 65 -12 217 -39 235 -41 11 -2 34 -6 50 -9 17 -4 46 -9
65 -11 19 -3 46 -8 60 -11 14 -3 34 -7 45 -9 11 -2 54 -9 95 -15 41 -7 84 -14
95 -16 11 -3 36 -7 55 -10 54 -8 73 -12 100 -18 14 -3 46 -8 72 -11 26 -3 53
-7 60 -10 7 -2 31 -7 53 -10 45 -6 85 -12 130 -20 17 -3 112 -17 213 -32 l183
-26 87 22 c48 13 94 24 102 26 8 2 44 12 80 23 36 11 101 29 145 41 44 13 87
25 95 28 8 3 21 7 28 9 6 1 49 14 95 27 77 24 419 127 552 167 33 10 71 22 85
28 14 5 28 10 33 10 4 0 33 8 65 18 31 10 62 18 67 20 6 1 55 16 110 34 55 17
107 33 115 35 22 6 251 76 425 130 83 26 158 49 168 50 9 2 22 7 27 10 5 3 18
8 27 10 10 2 77 22 148 45 72 23 155 49 185 57 30 8 59 17 64 21 9 5 -53 26
-259 87 -49 14 -129 39 -176 54 l-85 27 -125 -41 c-68 -22 -128 -42 -134 -44
-5 -2 -14 -5 -20 -7 -5 -1 -91 -29 -190 -60 -99 -32 -181 -57 -183 -56 -1 2
-16 -5 -32 -13 -16 -8 -31 -15 -32 -14 -3 2 -105 -26 -136 -36 -7 -3 -16 -5
-20 -6 -4 -1 -38 -13 -77 -26 -38 -13 -115 -37 -170 -53 -55 -16 -138 -40
-185 -55 -47 -14 -92 -28 -100 -30 -8 -2 -94 -26 -190 -53 -177 -51 -354 -98
-442 -117 -100 -21 -117 -25 -163 -32 -65 -10 -171 -5 -256 13 -13 2 -42 8
-64 13 -116 24 -293 66 -390 93 -60 16 -119 32 -130 34 -11 2 -42 10 -70 19
-54 16 -430 122 -480 135 -60 16 -280 81 -295 87 -8 3 -24 8 -35 10 -11 2 -31
7 -45 13 -30 11 -163 50 -170 49 -3 0 -18 5 -35 11 -16 7 -37 13 -46 15 -9 2
-47 13 -85 25 -38 12 -82 26 -99 30 -16 4 -93 27 -170 50 -331 98 -367 105
-485 88z"/>
</g>
</svg>
