<svg width="42" height="33" viewBox="0 0 42 33" fill="none" xmlns="http://www.w3.org/2000/svg">
<path d="M5.45703 2.36107C6.8104 1.34602 21.0131 -0.710312 22.7048 0.248229C23.8991 0.924938 25.8007 6.13089 28.795 9.04522C32.9059 13.0465 40.9833 16.2332 40.9833 16.2332C40.9833 16.2332 26.7649 22.2407 23.3814 22.2407C20.6747 22.2407 15.5995 18.5189 11.8777 14.7971C8.11136 11.0308 4.10365 3.37611 5.45703 2.36107Z" fill="#E8F0F2"/>
<path d="M0.0434909 17.925C0.839753 16.7306 7.1975 15.7599 7.82544 15.8949C8.18172 15.9715 12.1218 19.2344 14.9761 21.3458C18.3016 23.8057 21.6976 25.3686 24.4498 25.3686C26.1415 25.3686 38.2765 20.6317 38.2765 20.6317L41.66 21.9851C41.66 21.9851 26.0961 28.0753 24.4498 28.0753C23.3893 28.0753 16.0206 25.7191 11.2089 23.6768C6.74325 21.7814 -0.633188 18.94 0.0434909 17.925Z" fill="#E8F0F2"/>
<path d="M7.82874 26.3836C8.43657 26.3835 21.9671 30.7821 24.4044 30.7821C26.3689 30.7821 38.6149 26.7219 38.6149 26.7219L42 27.737C42 27.737 25.6922 32.8121 25.0155 32.8121C23.6621 32.8121 -0.187915 28.5416 0.0452114 28.0753C0.383584 27.3985 7.08319 26.3837 7.82874 26.3836Z" fill="#E8F0F2"/>
</svg>
